<?xml version="1.0" encoding="UTF-8" standalone="no"?>
<!DOCTYPE svg PUBLIC "-//W3C//DTD SVG 1.1//EN" "http://www.w3.org/Graphics/SVG/1.1/DTD/svg11.dtd">
<svg width="100%" height="100%" viewBox="0 0 207 40" version="1.1" xmlns="http://www.w3.org/2000/svg" xmlns:xlink="http://www.w3.org/1999/xlink" xml:space="preserve" xmlns:serif="http://www.serif.com/" style="fill-rule:evenodd;clip-rule:evenodd;stroke-linejoin:round;stroke-miterlimit:2;">
    <g id="Artboard1" transform="matrix(1.21982,0,0,1,0,0)">
        <rect x="0" y="0" width="169.394" height="40" style="fill:none;"/>
        <g transform="matrix(0.819793,0,0,1,-4.33737,-4.817)">
            <path d="M34.883,40L34.883,24.082L19.721,24.082L19.721,29.71L28.667,29.71C28.289,31.39 26.231,34.582 21.317,34.582C16.487,34.582 12.371,31.348 12.371,25.132C12.371,18.496 17.117,15.808 21.149,15.808C26.105,15.808 28.079,19.168 28.541,21.016L34.925,18.79C33.623,14.632 29.675,9.592 21.149,9.592C12.749,9.592 5.651,15.766 5.651,25.132C5.651,34.54 12.455,40.63 20.729,40.63C24.971,40.63 27.785,38.866 29.087,36.976L29.507,40L34.883,40Z" style="fill-rule:nonzero;"/>
            <path d="M47.567,34.75C45.173,34.75 42.863,33.028 42.863,29.542C42.863,26.014 45.173,24.376 47.567,24.376C50.003,24.376 52.271,26.014 52.271,29.542C52.271,33.07 50.003,34.75 47.567,34.75ZM47.567,18.496C41.351,18.496 36.479,23.074 36.479,29.542C36.479,36.01 41.351,40.63 47.567,40.63C53.825,40.63 58.655,36.01 58.655,29.542C58.655,23.074 53.825,18.496 47.567,18.496Z" style="fill-rule:nonzero;"/>
            <rect x="60.713" y="9.592" width="6.384" height="30.408" style="fill-rule:nonzero;"/>
            <path d="M91.205,9.592L84.905,9.592L84.905,20.764C84.401,19.966 82.847,18.622 79.277,18.622C73.355,18.622 69.155,23.284 69.155,29.5C69.155,35.926 73.607,40.462 79.487,40.462C82.007,40.462 84.107,39.412 85.073,37.984C85.073,38.824 85.199,39.748 85.241,40L91.373,40C91.331,39.538 91.205,38.152 91.205,36.262L91.205,9.592ZM75.581,29.542C75.581,26.056 77.807,24.376 80.285,24.376C82.763,24.376 84.989,26.056 84.989,29.542C84.989,32.986 82.763,34.75 80.285,34.75C77.807,34.75 75.581,32.986 75.581,29.542Z" style="fill-rule:nonzero;"/>
            <path d="M99.731,27.064C99.857,25.51 101.201,23.536 103.889,23.536C106.913,23.536 108.005,25.468 108.089,27.064L99.731,27.064ZM108.551,32.482C107.963,34.12 106.661,35.212 104.351,35.212C101.873,35.212 99.731,33.532 99.605,31.18L114.137,31.18C114.179,31.054 114.263,30.088 114.263,29.206C114.263,22.486 110.273,18.496 103.805,18.496C98.387,18.496 93.389,22.78 93.389,29.5C93.389,36.514 98.513,40.63 104.267,40.63C109.559,40.63 112.877,37.606 113.885,33.994L108.551,32.482Z" style="fill-rule:nonzero;"/>
            <path d="M122.705,28.03C122.705,25.93 124.049,24.376 126.149,24.376C128.459,24.376 129.551,25.93 129.551,27.988L129.551,40L135.935,40L135.935,26.896C135.935,22.318 133.583,18.58 128.333,18.58C126.191,18.58 123.629,19.546 122.495,21.52L122.495,19.126L116.321,19.126L116.321,40L122.705,40L122.705,28.03Z" style="fill-rule:nonzero;"/>
            <path d="M170.501,16.564L170.501,10.222L145.511,10.222L145.511,16.564L154.667,16.564L154.667,40L161.303,40L161.303,16.564L170.501,16.564Z" style="fill-rule:nonzero;"/>
            <path d="M178.355,40L178.355,19.126L171.971,19.126L171.971,40L178.355,40ZM171.425,12.742C171.425,14.8 173.105,16.48 175.121,16.48C177.221,16.48 178.901,14.8 178.901,12.742C178.901,10.684 177.221,9.004 175.121,9.004C173.105,9.004 171.425,10.684 171.425,12.742Z" style="fill-rule:nonzero;"/>
            <rect x="181.883" y="9.592" width="6.384" height="30.408" style="fill-rule:nonzero;"/>
            <path d="M196.667,27.064C196.793,25.51 198.137,23.536 200.825,23.536C203.849,23.536 204.941,25.468 205.025,27.064L196.667,27.064ZM205.487,32.482C204.899,34.12 203.597,35.212 201.287,35.212C198.809,35.212 196.667,33.532 196.541,31.18L211.073,31.18C211.115,31.054 211.199,30.088 211.199,29.206C211.199,22.486 207.209,18.496 200.741,18.496C195.323,18.496 190.325,22.78 190.325,29.5C190.325,36.514 195.449,40.63 201.203,40.63C206.495,40.63 209.813,37.606 210.821,33.994L205.487,32.482Z" style="fill-rule:nonzero;"/>
        </g>
    </g>
</svg>
