<?xml version="1.0" encoding="UTF-8"?>
<svg width="264px" height="70px" viewBox="0 0 264 70" version="1.1" xmlns="http://www.w3.org/2000/svg" xmlns:xlink="http://www.w3.org/1999/xlink">
    <title>EE8C0E6D-81C4-4EAC-833A-A3ABAF32048C</title>
    <defs>
        <filter color-interpolation-filters="auto" id="filter-1">
            <feColorMatrix in="SourceGraphic" type="matrix" values="0 0 0 0 0.000000 0 0 0 0 0.466667 0 0 0 0 0.619608 0 0 0 1.000000 0"></feColorMatrix>
        </filter>
    </defs>
    <g id="UI-Design" stroke="none" stroke-width="1" fill="none" fill-rule="evenodd">
        <g id="00c---Menu---Licences---Level-3" transform="translate(-95.000000, -60.000000)">
            <g id="Header" transform="translate(0.000000, 40.000000)">
                <g id="Logo" transform="translate(95.000000, 20.000000)" filter="url(#filter-1)">
                    <g transform="translate(-0.000000, 0.000000)">
                        <g id="Group" transform="translate(98.219260, 33.215859)" fill="#008FC0" fill-rule="nonzero">
                            <path d="M4.97034322,5.99118943 L3.73875375,4.9339207 L4.79440187,3.74449339 L6.02599134,4.84581498 C6.15794735,4.53744493 6.24591803,4.18502203 6.24591803,3.83259912 L6.24591803,3.83259912 C6.24591803,2.55506608 5.32222592,1.49779736 4.00266578,1.49779736 C2.68310563,1.49779736 1.75941353,2.55506608 1.75941353,3.83259912 L1.75941353,3.83259912 C1.75941353,5.11013216 2.68310563,6.16740088 4.00266578,6.16740088 C4.35454848,6.16740088 4.66244585,6.12334802 4.97034322,5.99118943 M6.99366878,7.79735683 L6.15794735,7.04845815 C5.54215262,7.44493392 4.75041653,7.7092511 3.95868044,7.7092511 C1.67144285,7.7092511 6.25069251e-15,5.99118943 6.25069251e-15,3.87665198 L6.25069251e-15,3.87665198 C6.25069251e-15,1.76211454 1.67144285,2.50411537e-14 4.00266578,2.50411537e-14 C6.28990337,2.50411537e-14 7.96134622,1.71806167 7.96134622,3.83259912 L7.96134622,3.83259912 C7.96134622,4.62555066 7.69743419,5.37444934 7.30156614,5.99118943 L8.04931689,6.65198238 L6.99366878,7.79735683 Z" id="Shape"></path>
                            <path d="M9.28090636,4.36123348 L9.28090636,0.0881057269 L10.9083639,0.0881057269 L10.9083639,4.31718062 C10.9083639,5.55066079 11.5241586,6.16740088 12.5358214,6.16740088 C13.5474842,6.16740088 14.1632789,5.55066079 14.1632789,4.36123348 L14.1632789,0.0881057269 L15.7907364,0.0881057269 L15.7907364,4.31718062 C15.7907364,6.56387665 14.5151616,7.7092511 12.4918361,7.7092511 C10.5124958,7.7092511 9.28090636,6.56387665 9.28090636,4.36123348" id="Path"></path>
                        </g>
                        <polygon id="Path" fill="#008FC0" fill-rule="nonzero" points="115.68144 33.3039648 121.355548 33.3039648 121.355548 34.7577093 117.352882 34.7577093 117.352882 36.2995595 120.871709 36.2995595 120.871709 37.753304 117.352882 37.753304 117.352882 39.339207 121.399533 39.339207 121.399533 40.7929515 115.68144 40.7929515"></polygon>
                        <polygon id="Path" fill="#008FC0" fill-rule="nonzero" points="122.85105 33.3039648 128.481173 33.3039648 128.481173 34.7577093 124.478507 34.7577093 124.478507 36.2995595 127.997334 36.2995595 127.997334 37.753304 124.478507 37.753304 124.478507 39.339207 128.525158 39.339207 128.525158 40.7929515 122.85105 40.7929515"></polygon>
                        <polygon id="Path" fill="#008FC0" fill-rule="nonzero" points="130.02066 33.3039648 131.516161 33.3039648 135.034988 37.9295154 135.034988 33.3039648 136.662446 33.3039648 136.662446 40.7929515 135.254915 40.7929515 131.648117 36.0352423 131.648117 40.7929515 130.02066 40.7929515"></polygon>
                        <path d="M137.938021,39.69163 L138.905698,38.5462555 C139.565478,39.1189427 140.269244,39.4713656 141.14895,39.4713656 C141.80873,39.4713656 142.248584,39.2070485 142.248584,38.7665198 L142.248584,38.722467 C142.248584,38.3259912 141.984672,38.1057269 140.753082,37.753304 C139.257581,37.3568282 138.289903,36.9603524 138.289903,35.4625551 L138.289903,35.4625551 C138.289903,34.0969163 139.389537,33.215859 140.929024,33.215859 C142.028657,33.215859 142.952349,33.5682819 143.7001,34.185022 L142.864379,35.4185022 C142.204598,34.9779736 141.544818,34.6696035 140.929024,34.6696035 C140.313229,34.6696035 139.961346,34.9779736 139.961346,35.3303965 L139.961346,35.3303965 C139.961346,35.814978 140.269244,35.9911894 141.588804,36.2995595 C143.084305,36.6960352 143.964012,37.2246696 143.964012,38.5462555 L143.964012,38.5462555 C143.964012,40.0440529 142.820393,40.8810573 141.236921,40.8810573 C139.961346,40.8810573 138.817727,40.4845815 137.938021,39.69163" id="Path" fill="#008FC0" fill-rule="nonzero"></path>
                        <polygon id="Path" fill="#008FC0" fill-rule="nonzero" points="145.283572 33.3039648 146.91103 33.3039648 146.91103 39.2951542 150.649783 39.2951542 150.649783 40.7929515 145.283572 40.7929515"></polygon>
                        <path d="M156.191936,37.6651982 L155.180273,35.2422907 L154.16861,37.6651982 L156.191936,37.6651982 Z M154.476508,33.2599119 L155.972009,33.2599119 L159.182939,40.7929515 L157.467511,40.7929515 L156.763745,39.1189427 L153.596801,39.1189427 L152.893036,40.7929515 L151.221593,40.7929515 L154.476508,33.2599119 Z" id="Shape" fill="#008FC0" fill-rule="nonzero"></path>
                        <polygon id="Path" fill="#008FC0" fill-rule="nonzero" points="160.326558 33.3039648 161.866045 33.3039648 165.340886 37.9295154 165.340886 33.3039648 166.968344 33.3039648 166.968344 40.7929515 165.560813 40.7929515 161.954015 36.0352423 161.954015 40.7929515 160.326558 40.7929515"></polygon>
                        <g id="Group" transform="translate(168.771743, 33.303965)" fill="#008FC0" fill-rule="nonzero">
                            <path d="M2.90303232,5.99118943 C4.26657781,5.99118943 5.14628457,5.0660793 5.14628457,3.74449339 L5.14628457,3.74449339 C5.14628457,2.42290749 4.22259247,1.49779736 2.90303232,1.49779736 L1.62745751,1.49779736 L1.62745751,5.99118943 L2.90303232,5.99118943 L2.90303232,5.99118943 Z M0,0 L2.90303232,0 C5.23425525,0 6.86171276,1.62995595 6.86171276,3.70044053 L6.86171276,3.74449339 C6.86171276,5.85903084 5.23425525,7.48898678 2.90303232,7.48898678 L0,7.48898678 L0,0 L0,0 Z" id="Shape"></path>
                            <path d="M15.1309563,6.03524229 C15.8787071,6.03524229 16.2745751,5.77092511 16.2745751,5.24229075 L16.2745751,5.24229075 C16.2745751,4.75770925 15.9226924,4.44933921 15.0429857,4.44933921 L13.1516161,4.44933921 L13.1516161,6.07929515 L15.1309563,6.07929515 L15.1309563,6.03524229 Z M14.691103,3.03964758 C15.4388537,3.03964758 15.8787071,2.81938326 15.8787071,2.24669604 L15.8787071,2.20264317 C15.8787071,1.71806167 15.4828391,1.45374449 14.7790736,1.45374449 L13.1516161,1.45374449 L13.1516161,3.03964758 L14.691103,3.03964758 Z M11.568144,0 L15.0429857,0 C15.8787071,0 16.5824725,0.220264317 16.9783406,0.660792952 C17.3302233,1.01321586 17.5061646,1.40969163 17.5061646,1.93832599 L17.5061646,1.93832599 C17.5061646,2.7753304 17.0663112,3.25991189 16.5384872,3.56828194 C17.4181939,3.92070485 17.946018,4.40528634 17.946018,5.4185022 L17.946018,5.4185022 C17.946018,6.78414097 16.8463845,7.48898678 15.1309563,7.48898678 L11.568144,7.48898678 L11.568144,0 L11.568144,0 Z" id="Shape"></path>
                            <path d="M19.1336221,4.27312775 L19.1336221,0 L20.7610796,0 L20.7610796,4.22907489 C20.7610796,5.46255507 21.3768744,6.07929515 22.3885372,6.07929515 C23.4001999,6.07929515 24.0159947,5.46255507 24.0159947,4.27312775 L24.0159947,0 L25.6434522,0 L25.6434522,4.22907489 C25.6434522,6.47577093 24.3678774,7.62114537 22.3445518,7.62114537 C20.3652116,7.62114537 19.1336221,6.47577093 19.1336221,4.27312775" id="Path"></path>
                        </g>
                        <rect id="Rectangle" fill="#008FC0" fill-rule="nonzero" x="196.174608" y="33.3039648" width="1.62745751" height="7.48898678"></rect>
                        <polygon id="Path" fill="#008FC0" fill-rule="nonzero" points="199.693436 33.3039648 201.364878 33.3039648 201.364878 39.2951542 205.059647 39.2951542 205.059647 40.7929515 199.693436 40.7929515"></polygon>
                        <path d="M209.238254,39.2951542 C210.601799,39.2951542 211.481506,38.3700441 211.481506,37.0484581 L211.481506,37.0484581 C211.481506,35.7268722 210.557814,34.8017621 209.238254,34.8017621 L207.962679,34.8017621 L207.962679,39.2951542 L209.238254,39.2951542 L209.238254,39.2951542 Z M206.291236,33.3039648 L209.194269,33.3039648 C211.525492,33.3039648 213.152949,34.9339207 213.152949,37.0044053 L213.152949,37.0484581 C213.152949,39.1629956 211.525492,40.7929515 209.194269,40.7929515 L206.291236,40.7929515 L206.291236,33.3039648 Z" id="Shape" fill="#008FC0" fill-rule="nonzero"></path>
                        <rect id="Rectangle" fill="#008FC0" fill-rule="nonzero" x="214.736421" y="33.3039648" width="1.62745751" height="7.48898678"></rect>
                        <polygon id="Path" fill="#008FC0" fill-rule="nonzero" points="218.255248 33.3039648 219.75075 33.3039648 223.269577 37.9295154 223.269577 33.3039648 224.897034 33.3039648 224.897034 40.7929515 223.489503 40.7929515 219.882706 36.0352423 219.882706 40.7929515 218.255248 40.7929515"></polygon>
                        <path d="M226.34855,37.0484581 L226.34855,37.0484581 C226.34855,34.8898678 228.019993,33.1718062 230.263246,33.1718062 C231.626791,33.1718062 232.418527,33.5242291 233.210263,34.185022 L232.154615,35.4185022 C231.582806,34.9339207 231.054982,34.6696035 230.21926,34.6696035 C229.031656,34.6696035 228.063979,35.7268722 228.063979,37.0044053 L228.063979,37.0044053 C228.063979,38.3700441 228.987671,39.3832599 230.307231,39.3832599 C230.923026,39.3832599 231.45085,39.2511013 231.846718,38.9427313 L231.846718,37.8854626 L230.175275,37.8854626 L230.175275,36.4757709 L233.43019,36.4757709 L233.43019,39.7356828 C232.682439,40.3964758 231.582806,40.9251101 230.21926,40.9251101 C227.976008,40.9251101 226.34855,39.2951542 226.34855,37.0484581" id="Path" fill="#008FC0" fill-rule="nonzero"></path>
                        <path d="M242.57914,37.6651982 L241.567478,35.2422907 L240.555815,37.6651982 L242.57914,37.6651982 Z M240.819727,33.2599119 L242.315228,33.2599119 L245.526158,40.7929515 L243.81073,40.7929515 L243.106964,39.1189427 L239.94002,39.1189427 L239.236255,40.7929515 L237.564812,40.7929515 L240.819727,33.2599119 Z" id="Shape" fill="#008FC0" fill-rule="nonzero"></path>
                        <polygon id="Path" fill="#008FC0" fill-rule="nonzero" points="246.713762 33.3039648 248.209264 33.3039648 251.728091 37.9295154 251.728091 33.3039648 253.355548 33.3039648 253.355548 40.7929515 251.948017 40.7929515 248.34122 36.0352423 248.34122 40.7929515 246.713762 40.7929515"></polygon>
                        <g id="Group" transform="translate(98.219260, 33.303965)" fill="#008FC0" fill-rule="nonzero">
                            <path d="M159.842719,5.99118943 C161.206265,5.99118943 162.085971,5.0660793 162.085971,3.74449339 L162.085971,3.74449339 C162.085971,2.42290749 161.162279,1.49779736 159.842719,1.49779736 L158.567144,1.49779736 L158.567144,5.99118943 L159.842719,5.99118943 L159.842719,5.99118943 Z M156.939687,0 L159.842719,0 C162.173942,0 163.8014,1.62995595 163.8014,3.70044053 L163.8014,3.74449339 C163.8014,5.85903084 162.173942,7.48898678 159.842719,7.48898678 L156.939687,7.48898678 L156.939687,0 Z" id="Shape"></path>
                            <path d="M6.25069251e-15,16.5638767 L6.25069251e-15,16.5638767 C6.25069251e-15,14.4052863 1.58347218,12.6872247 3.9146951,12.6872247 C5.32222592,12.6872247 6.15794735,13.1718062 6.86171276,13.8325991 L5.80606465,15.0220264 C5.23425525,14.4933921 4.66244585,14.185022 3.9146951,14.185022 C2.63912029,14.185022 1.75941353,15.2422907 1.75941353,16.5198238 L1.75941353,16.5198238 C1.75941353,17.7973568 2.63912029,18.8546256 3.9146951,18.8546256 C4.75041653,18.8546256 5.27824059,18.5022026 5.89403532,17.9735683 L6.94968344,19.030837 C6.20193269,19.8678414 5.32222592,20.3524229 3.87070976,20.3524229 C1.62745751,20.3964758 6.25069251e-15,18.722467 6.25069251e-15,16.5638767" id="Path"></path>
                            <path d="M13.8993669,16.5638767 L13.8993669,16.5638767 C13.8993669,15.2422907 12.9756748,14.185022 11.6561146,14.185022 C10.3365545,14.185022 9.41286238,15.2422907 9.41286238,16.5198238 L9.41286238,16.5198238 C9.41286238,17.7973568 10.3365545,18.8546256 11.6561146,18.8546256 C12.9756748,18.8986784 13.8993669,17.8414097 13.8993669,16.5638767 M7.65344885,16.5638767 L7.65344885,16.5638767 C7.65344885,14.4052863 9.3248917,12.6872247 11.6561146,12.6872247 C13.9433522,12.6872247 15.6147951,14.4052863 15.6147951,16.5198238 L15.6147951,16.5198238 C15.6147951,18.6343612 13.9433522,20.3964758 11.6121293,20.3964758 C9.3248917,20.3964758 7.65344885,18.6784141 7.65344885,16.5638767" id="Shape"></path>
                        </g>
                        <polygon id="Path" fill="#008FC0" fill-rule="nonzero" points="115.285571 46.0792952 116.825058 46.0792952 120.2999 50.7048458 120.2999 46.0792952 121.927358 46.0792952 121.927358 53.5682819 120.519827 53.5682819 116.913029 48.8105727 116.913029 53.5682819 115.285571 53.5682819"></polygon>
                        <path d="M123.202932,52.5110132 L124.17061,51.3656388 C124.83039,51.938326 125.534155,52.2907489 126.413862,52.2907489 C127.073642,52.2907489 127.513496,52.0264317 127.513496,51.5859031 L127.513496,51.5418502 C127.513496,51.1453744 127.249583,50.9251101 126.017994,50.5726872 C124.522493,50.1762115 123.554815,49.7797357 123.554815,48.2819383 L123.554815,48.2819383 C123.554815,46.9162996 124.654449,46.0352423 126.193935,46.0352423 C127.293569,46.0352423 128.217261,46.3876652 128.965012,47.0044053 L128.12929,48.2378855 C127.46951,47.7973568 126.80973,47.4889868 126.193935,47.4889868 C125.578141,47.4889868 125.226258,47.7973568 125.226258,48.1497797 L125.226258,48.1497797 C125.226258,48.6343612 125.534155,48.8105727 126.853715,49.1189427 C128.349217,49.5154185 129.228924,50.0440529 129.228924,51.3656388 L129.228924,51.3656388 C129.228924,52.8634361 128.085305,53.7004405 126.501833,53.7004405 C125.270243,53.7004405 124.126624,53.3039648 123.202932,52.5110132" id="Path" fill="#008FC0" fill-rule="nonzero"></path>
                        <polygon id="Path" fill="#008FC0" fill-rule="nonzero" points="132.131956 47.6211454 129.888704 47.6211454 129.888704 46.0792952 136.046651 46.0792952 136.046651 47.6211454 133.803399 47.6211454 133.803399 53.5682819 132.131956 53.5682819"></polygon>
                        <g id="Group" transform="translate(137.322226, 45.991189)" fill="#008FC0" fill-rule="nonzero">
                            <path d="M3.29890037,3.74449339 C4.09063645,3.74449339 4.57447517,3.30396476 4.57447517,2.68722467 L4.57447517,2.68722467 C4.57447517,1.98237885 4.09063645,1.62995595 3.29890037,1.62995595 L1.67144285,1.62995595 L1.67144285,3.78854626 L3.29890037,3.78854626 L3.29890037,3.74449339 Z M0,0.0881057269 L3.43085638,0.0881057269 C4.39853382,0.0881057269 5.10229923,0.352422907 5.58613795,0.837004405 C6.02599134,1.23348018 6.24591803,1.85022026 6.24591803,2.55506608 L6.24591803,2.55506608 C6.24591803,3.74449339 5.58613795,4.53744493 4.66244585,4.88986784 L6.50983006,7.57709251 L4.53048984,7.57709251 L2.94701766,5.19823789 L1.67144285,5.19823789 L1.67144285,7.57709251 L0.0439853382,7.57709251 L0.0439853382,0.0881057269 L0,0.0881057269 Z" id="Shape"></path>
                            <path d="M7.60946351,4.36123348 L7.60946351,0.0881057269 L9.23692103,0.0881057269 L9.23692103,4.31718062 C9.23692103,5.55066079 9.85271576,6.16740088 10.8643785,6.16740088 C11.8760413,6.16740088 12.4918361,5.55066079 12.4918361,4.36123348 L12.4918361,0.0881057269 L14.1192936,0.0881057269 L14.1192936,4.31718062 C14.1192936,6.60792952 12.8437188,7.7092511 10.8203932,7.7092511 C8.84105298,7.7092511 7.60946351,6.56387665 7.60946351,4.36123348" id="Path"></path>
                            <path d="M15.4828391,3.87665198 L15.4828391,3.87665198 C15.4828391,1.71806167 17.0663112,0 19.3975342,0 C20.805065,0 21.6407864,0.484581498 22.3445518,1.14537445 L21.2889037,2.33480176 C20.7170943,1.8061674 20.1452849,1.49779736 19.3975342,1.49779736 C18.1219593,1.49779736 17.2422526,2.55506608 17.2422526,3.83259912 L17.2422526,3.83259912 C17.2422526,5.11013216 18.1219593,6.16740088 19.3975342,6.16740088 C20.2332556,6.16740088 20.7610796,5.81497797 21.3768744,5.28634361 L22.4325225,6.34361233 C21.6847717,7.18061674 20.805065,7.66519824 19.3535488,7.66519824 C17.1102966,7.7092511 15.4828391,6.03524229 15.4828391,3.87665198" id="Path"></path>
                        </g>
                        <polygon id="Path" fill="#008FC0" fill-rule="nonzero" points="162.745751 47.6211454 160.458514 47.6211454 160.458514 46.0792952 166.660447 46.0792952 166.660447 47.6211454 164.373209 47.6211454 164.373209 53.5682819 162.745751 53.5682819"></polygon>
                        <rect id="Rectangle" fill="#008FC0" fill-rule="nonzero" x="167.980007" y="46.0792952" width="1.62745751" height="7.48898678"></rect>
                        <path d="M177.392869,49.8678414 L177.392869,49.8678414 C177.392869,48.5462555 176.469177,47.4889868 175.149617,47.4889868 C173.830057,47.4889868 172.906365,48.5462555 172.906365,49.8237885 L172.906365,49.8237885 C172.906365,51.1013216 173.830057,52.1585903 175.149617,52.1585903 C176.469177,52.2026432 177.392869,51.1453744 177.392869,49.8678414 M171.190936,49.8678414 L171.190936,49.8678414 C171.190936,47.7092511 172.862379,45.9911894 175.193602,45.9911894 C177.48084,45.9911894 179.152283,47.7092511 179.152283,49.8237885 L179.152283,49.8237885 C179.152283,51.938326 177.48084,53.7004405 175.149617,53.7004405 C172.818394,53.7004405 171.190936,51.9823789 171.190936,49.8678414" id="Shape" fill="#008FC0" fill-rule="nonzero"></path>
                        <polygon id="Path" fill="#008FC0" fill-rule="nonzero" points="180.603799 46.0792952 182.0993 46.0792952 185.618127 50.7048458 185.618127 46.0792952 187.245585 46.0792952 187.245585 53.5682819 185.838054 53.5682819 182.231256 48.8105727 182.231256 53.5682819 180.603799 53.5682819"></polygon>
                        <g id="Group" transform="translate(191.908031, 45.991189)" fill="#008FC0" fill-rule="nonzero">
                            <path d="M0,3.87665198 L0,3.87665198 C0,1.71806167 1.58347218,0 3.9146951,0 C5.32222592,0 6.15794735,0.484581498 6.86171276,1.14537445 L5.80606465,2.33480176 C5.23425525,1.8061674 4.66244585,1.49779736 3.9146951,1.49779736 C2.63912029,1.49779736 1.75941353,2.55506608 1.75941353,3.83259912 L1.75941353,3.83259912 C1.75941353,5.11013216 2.63912029,6.16740088 3.9146951,6.16740088 C4.75041653,6.16740088 5.27824059,5.81497797 5.89403532,5.28634361 L6.94968344,6.34361233 C6.20193269,7.18061674 5.32222592,7.66519824 3.87070976,7.66519824 C1.62745751,7.7092511 0,6.03524229 0,3.87665198" id="Path"></path>
                            <path d="M13.8993669,3.87665198 L13.8993669,3.87665198 C13.8993669,2.55506608 12.9756748,1.49779736 11.6561146,1.49779736 C10.3365545,1.49779736 9.41286238,2.55506608 9.41286238,3.83259912 L9.41286238,3.83259912 C9.41286238,5.11013216 10.3365545,6.16740088 11.6561146,6.16740088 C12.9756748,6.21145374 13.8993669,5.15418502 13.8993669,3.87665198 M7.65344885,3.87665198 L7.65344885,3.87665198 C7.65344885,1.71806167 9.3248917,0 11.6561146,0 C13.9433522,0 15.6147951,1.71806167 15.6147951,3.83259912 L15.6147951,3.83259912 C15.6147951,5.94713656 13.9433522,7.7092511 11.6121293,7.7092511 C9.3248917,7.7092511 7.65344885,5.99118943 7.65344885,3.87665198" id="Shape"></path>
                        </g>
                        <polygon id="Path" fill="#008FC0" fill-rule="nonzero" points="208.974342 46.0792952 210.733755 46.0792952 212.713096 49.2511013 214.692436 46.0792952 216.451849 46.0792952 216.451849 53.5682819 214.824392 53.5682819 214.824392 48.6784141 212.713096 51.8942731 212.66911 51.8942731 210.601799 48.722467 210.601799 53.5682819 208.974342 53.5682819"></polygon>
                        <polygon id="Path" fill="#008FC0" fill-rule="nonzero" points="218.255248 46.0792952 220.014662 46.0792952 221.994002 49.2511013 223.973342 46.0792952 225.732756 46.0792952 225.732756 53.5682819 224.105298 53.5682819 224.105298 48.6784141 221.994002 51.8942731 221.950017 51.8942731 219.882706 48.722467 219.882706 53.5682819 218.255248 53.5682819"></polygon>
                        <rect id="Rectangle" fill="#008FC0" fill-rule="nonzero" x="227.58014" y="46.0792952" width="1.62745751" height="7.48898678"></rect>
                        <g id="Group" transform="translate(230.615128, 46.035242)" fill="#008FC0" fill-rule="nonzero">
                            <path d="M2.500277e-14,6.47577093 L0.967677441,5.33039648 C1.62745751,5.9030837 2.33122293,6.25550661 3.21092969,6.25550661 C3.87070976,6.25550661 4.31056315,5.99118943 4.31056315,5.55066079 L4.31056315,5.50660793 C4.31056315,5.11013216 4.04665112,4.88986784 2.81506165,4.53744493 C1.31956015,4.14096916 0.351882706,3.74449339 0.351882706,2.24669604 L0.351882706,2.24669604 C0.351882706,0.881057269 1.45151616,2.50411537e-14 2.94701766,2.50411537e-14 C4.04665112,2.50411537e-14 4.97034322,0.352422907 5.71809397,0.969162996 L4.88237254,2.20264317 C4.22259247,1.76211454 3.5628124,1.45374449 2.94701766,1.45374449 C2.33122293,1.45374449 1.97934022,1.76211454 1.97934022,2.11453744 L1.97934022,2.11453744 C1.97934022,2.59911894 2.28723759,2.7753304 3.60679773,3.08370044 C5.10229923,3.48017621 5.982006,4.00881057 5.982006,5.33039648 L5.982006,5.33039648 C5.982006,6.82819383 4.8383872,7.66519824 3.25491503,7.66519824 C2.02332556,7.66519824 0.879706764,7.26872247 2.500277e-14,6.47577093" id="Path"></path>
                            <path d="M6.72975675,6.47577093 L7.69743419,5.33039648 C8.35721426,5.9030837 9.06097967,6.25550661 9.94068644,6.25550661 C10.6004665,6.25550661 11.0403199,5.99118943 11.0403199,5.55066079 L11.0403199,5.50660793 C11.0403199,5.11013216 10.7764079,4.88986784 9.54481839,4.53744493 C8.04931689,4.14096916 7.08163945,3.74449339 7.08163945,2.24669604 L7.08163945,2.24669604 C7.08163945,0.881057269 8.18127291,2.50411537e-14 9.67677441,2.50411537e-14 C10.7764079,2.50411537e-14 11.7001,0.352422907 12.4478507,0.969162996 L11.6121293,2.20264317 C10.9523492,1.76211454 10.2925691,1.45374449 9.67677441,1.45374449 C9.06097967,1.45374449 8.70909697,1.76211454 8.70909697,2.11453744 L8.70909697,2.11453744 C8.70909697,2.59911894 9.01699434,2.7753304 10.3365545,3.08370044 C11.832056,3.48017621 12.7117627,4.00881057 12.7117627,5.33039648 L12.7117627,5.33039648 C12.7117627,6.82819383 11.568144,7.66519824 9.98467178,7.66519824 C8.75308231,7.66519824 7.60946351,7.26872247 6.72975675,6.47577093" id="Path"></path>
                        </g>
                        <rect id="Rectangle" fill="#008FC0" fill-rule="nonzero" x="244.734422" y="46.0792952" width="1.62745751" height="7.48898678"></rect>
                        <path d="M254.147284,49.8678414 L254.147284,49.8678414 C254.147284,48.5462555 253.223592,47.4889868 251.904032,47.4889868 C250.584472,47.4889868 249.66078,48.5462555 249.66078,49.8237885 L249.66078,49.8237885 C249.66078,51.1013216 250.584472,52.1585903 251.904032,52.1585903 C253.223592,52.2026432 254.147284,51.1453744 254.147284,49.8678414 M247.945352,49.8678414 L247.945352,49.8678414 C247.945352,47.7092511 249.616794,45.9911894 251.948017,45.9911894 C254.27924,45.9911894 255.906698,47.7092511 255.906698,49.8237885 L255.906698,49.8237885 C255.906698,51.938326 254.235255,53.7004405 251.904032,53.7004405 C249.572809,53.7004405 247.945352,51.9823789 247.945352,49.8678414" id="Shape" fill="#008FC0" fill-rule="nonzero"></path>
                        <polygon id="Path" fill="#008FC0" fill-rule="nonzero" points="257.358214 46.0792952 258.853715 46.0792952 262.372542 50.7048458 262.372542 46.0792952 264 46.0792952 264 53.5682819 262.592469 53.5682819 258.941686 48.8105727 258.941686 53.5682819 257.358214 53.5682819"></polygon>
                        <g id="Group" transform="translate(24.543819, 25.550661)" fill="#008FC0" fill-rule="nonzero">
                            <path d="M3.51882706,10.1321586 C5.14628457,8.1938326 7.08163945,7.2246696 9.3248917,7.2246696 C10.6444518,7.2246696 11.832056,7.48898678 12.8877041,7.97356828 C13.8993669,8.45814978 14.7790736,9.16299559 15.5268244,10.0881057 C16.2305898,10.969163 16.8023992,12.1145374 17.1542819,13.3920705 C17.5061646,14.7136564 17.7260913,16.123348 17.7260913,17.7092511 C17.7260913,19.339207 17.5061646,20.8370044 17.0663112,22.1585903 C16.6264578,23.4801762 16.0106631,24.6255507 15.2629124,25.5506608 C14.4711763,26.4757709 13.5914695,27.2246696 12.5358214,27.7092511 C11.4801733,28.2378855 10.3365545,28.4581498 9.14895035,28.4581498 C6.9056981,28.4581498 5.0583139,27.753304 3.60679773,26.4317181 L3.60679773,27.9735683 L0,27.9735683 L0,2.50411537e-14 L3.60679773,2.50411537e-14 L3.60679773,10.1321586 L3.51882706,10.1321586 Z M3.51882706,23.215859 C5.10229923,24.845815 6.86171276,25.6828194 8.84105298,25.6828194 C10.3805398,25.6828194 11.6121293,25.0220264 12.5358214,23.7004405 C13.4595135,22.3788546 13.8993669,20.3964758 13.8993669,17.753304 C13.8993669,15.2422907 13.4595135,13.3480176 12.6237921,12.0704846 C11.7440853,10.7929515 10.5564812,10.1321586 9.01699434,10.1321586 C6.99366878,10.1321586 5.14628457,11.277533 3.51882706,13.6123348 L3.51882706,23.215859 Z" id="Shape"></path>
                            <path d="M28.4145285,28.5022026 C27.0069977,28.5022026 25.6874375,28.2819383 24.5438187,27.7973568 C23.3562146,27.3127753 22.3885372,26.6519824 21.5528157,25.7268722 C20.7170943,24.845815 20.0573142,23.7004405 19.6174608,22.4229075 C19.1336221,21.1013216 18.9136954,19.6035242 18.9136954,17.8854626 C18.9136954,16.2114537 19.1336221,14.7136564 19.6174608,13.3920705 C20.0573142,12.0704846 20.7170943,10.969163 21.5528157,10.0440529 C22.3885372,9.11894273 23.4001999,8.41409692 24.5438187,7.97356828 C25.7314229,7.48898678 27.0069977,7.26872247 28.4585138,7.26872247 C29.5581473,7.26872247 30.5698101,7.40088106 31.4935022,7.7092511 C32.4171943,8.01762115 33.2529157,8.41409692 33.9566811,8.98678414 C34.6604465,9.5154185 35.2762413,10.2202643 35.7160946,11.0572687 C36.155948,11.8942731 36.4638454,12.8193833 36.6397867,13.876652 L32.8570477,13.876652 C32.8130623,12.6431718 32.3292236,11.7180617 31.4935022,11.1013216 C30.6577807,10.4405286 29.6021326,10.1321586 28.3705432,10.1321586 C27.4908364,10.1321586 26.7430856,10.30837 26.0393202,10.6167401 C25.3355548,10.9251101 24.7197601,11.4537445 24.2359214,12.1145374 C23.7080973,12.7753304 23.3122293,13.5682819 23.0483172,14.5374449 C22.7844052,15.5066079 22.6084638,16.6519824 22.6084638,17.9295154 C22.6084638,19.2070485 22.7404199,20.3524229 23.0483172,21.3215859 C23.3122293,22.2907489 23.7080973,23.1277533 24.2359214,23.7444934 C24.7637454,24.4052863 25.3355548,24.8898678 26.0393202,25.1982379 C26.7430856,25.5066079 27.5348217,25.6828194 28.3705432,25.6828194 C28.9423525,25.6828194 29.5141619,25.5947137 30.041986,25.4625551 C30.5698101,25.2863436 31.0536488,25.0660793 31.4495168,24.7577093 C31.8453849,24.4493392 32.1972676,24.0528634 32.4171943,23.6123348 C32.6811063,23.1277533 32.8130623,22.5991189 32.8570477,21.9823789 L36.5518161,21.9823789 C36.3758747,23.0837004 36.0679773,24.0088106 35.628124,24.8017621 C35.1882706,25.5947137 34.5724758,26.2995595 33.8687104,26.8281938 C33.164945,27.4008811 32.3292236,27.7973568 31.4055315,28.061674 C30.5258247,28.3700441 29.5141619,28.5022026 28.4145285,28.5022026" id="Path"></path>
                            <path d="M46.7564145,28.5022026 C45.3488837,28.5022026 44.0293236,28.2819383 42.8857048,27.7973568 C41.6981006,27.3127753 40.7304232,26.6519824 39.8947018,25.7268722 C39.0589803,24.845815 38.3992003,23.7004405 37.9593469,22.4229075 C37.4755082,21.1013216 37.2555815,19.6035242 37.2555815,17.8854626 C37.2555815,16.2114537 37.4755082,14.7136564 37.9593469,13.3920705 C38.3992003,12.0704846 39.0589803,10.969163 39.8947018,10.0440529 C40.7304232,9.11894273 41.742086,8.41409692 42.8857048,7.97356828 C44.0733089,7.48898678 45.3488837,7.26872247 46.8003999,7.26872247 C47.9000333,7.26872247 48.9116961,7.40088106 49.8353882,7.7092511 C50.7590803,8.01762115 51.5948017,8.41409692 52.2985671,8.98678414 C53.0023326,9.5154185 53.6181273,10.2202643 54.0579807,11.0572687 C54.4978341,11.8942731 54.8057314,12.8193833 54.9816728,13.876652 L51.2869044,13.876652 C51.242919,12.6431718 50.7590803,11.7180617 49.9233589,11.1013216 C49.0876375,10.4405286 48.0319893,10.1321586 46.8003999,10.1321586 C45.9206931,10.1321586 45.1729424,10.30837 44.4691769,10.6167401 C43.7654115,10.9251101 43.1496168,11.4537445 42.6657781,12.1145374 C42.137954,12.7753304 41.742086,13.5682819 41.4781739,14.5374449 C41.2142619,15.5066079 41.0383206,16.6519824 41.0383206,17.9295154 C41.0383206,19.2070485 41.1702766,20.3524229 41.4781739,21.3215859 C41.742086,22.2907489 42.137954,23.1277533 42.6657781,23.7444934 C43.1936021,24.4052863 43.7654115,24.8898678 44.4691769,25.1982379 C45.1729424,25.5066079 45.9646784,25.6828194 46.8003999,25.6828194 C47.3722093,25.6828194 47.9440187,25.5947137 48.4718427,25.4625551 C48.9996668,25.2863436 49.4835055,25.0660793 49.8793735,24.7577093 C50.2752416,24.4493392 50.6271243,24.0528634 50.847051,23.6123348 C51.110963,23.1277533 51.242919,22.5991189 51.2869044,21.9823789 L54.9816728,21.9823789 C54.8057314,23.0837004 54.4978341,24.0088106 54.0579807,24.8017621 C53.6181273,25.5947137 53.0023326,26.2995595 52.2985671,26.8281938 C51.5948017,27.4008811 50.7590803,27.7973568 49.8353882,28.061674 C48.8237254,28.3700441 47.8120626,28.5022026 46.7564145,28.5022026" id="Path"></path>
                        </g>
                        <path d="M45.260913,17.7973568 L24.8957014,17.7973568 L24.8957014,15.3303965 L45.260913,15.3303965 L45.260913,17.7973568 Z M45.260913,23.4801762 L24.5438187,23.4801762 L24.5438187,21.0132159 L45.260913,21.0132159 L45.260913,23.4801762 Z M22.2565811,70 L19.7934022,70 L19.7934022,9.47136564 L45.3048984,9.47136564 L45.3048984,11.938326 L22.3005665,11.938326 L22.3005665,70 L22.2565811,70 Z" id="Shape" fill="#008FC0" fill-rule="nonzero"></path>
                        <path d="M17.814062,61.3656388 L14.2072642,61.3656388 L14.2072642,51.1453744 C12.5798067,53.0837004 10.6444518,54.0528634 8.4011996,54.0528634 C7.03765412,54.0528634 5.85004998,53.7885463 4.8383872,53.3039648 C3.78273909,52.8193833 2.90303232,52.1145374 2.19926691,51.1894273 C1.4955015,50.30837 0.967677441,49.2070485 0.571809397,47.8854626 C0.219926691,46.6079295 0,45.154185 0,43.6123348 C0,41.938326 0.219926691,40.4405286 0.659780073,39.0748899 C1.09963346,37.753304 1.71542819,36.6079295 2.46317894,35.6828194 C3.21092969,34.7577093 4.13462179,34.0528634 5.19026991,33.5242291 C6.24591803,33.0396476 7.34555148,32.7753304 8.57714095,32.7753304 C10.7764079,32.7753304 12.6237921,33.4801762 14.1632789,34.8017621 L14.1632789,33.2599119 L17.7700766,33.2599119 L17.7700766,61.3656388 L17.814062,61.3656388 Z M14.2072642,47.7092511 L14.2072642,38.1057269 C12.6237921,36.4757709 10.8203932,35.6387665 8.84105298,35.6387665 C7.30156614,35.6387665 6.06997667,36.2995595 5.14628457,37.6211454 C4.22259247,38.9427313 3.78273909,40.9251101 3.78273909,43.6123348 C3.78273909,46.123348 4.22259247,48.0176211 5.10229923,49.2951542 C5.982006,50.5726872 7.16961013,51.2334802 8.75308231,51.2334802 C10.7324225,51.2334802 12.5798067,50.0881057 14.2072642,47.7092511" id="Shape" fill="#008FC0" fill-rule="nonzero"></path>
                        <polygon id="Path" fill="#008FC0" fill-rule="nonzero" points="55.2455848 17.9735683 40.2025991 3.48017621 24.9396868 17.7973568 23.2682439 15.9911894 40.2465845 0 41.1262912 0.925110132 56.961013 16.1674009"></polygon>
                        <rect id="Rectangle" fill="#008FC0" fill-rule="nonzero" x="47.6361213" y="10.3524229" width="2.46317894" height="13.1718062"></rect>
                        <rect id="Rectangle" fill="#008FC0" fill-rule="nonzero" x="88.0586471" y="33.4361233" width="1.45151616" height="20.1321586"></rect>
                    </g>
                </g>
            </g>
        </g>
    </g>
</svg>