<svg xmlns="http://www.w3.org/2000/svg" xml:space="preserve" style="fill-rule:evenodd;clip-rule:evenodd;stroke-linejoin:round;stroke-miterlimit:2" viewBox="0 0 207 40"><path d="M0 0h169.394v40H0z" style="fill:none" transform="scale(1.21982 1)"/><path d="M34.883 40V24.082H19.721v5.628h8.946c-.378 1.68-2.436 4.872-7.35 4.872-4.83 0-8.946-3.234-8.946-9.45 0-6.636 4.746-9.324 8.778-9.324 4.956 0 6.93 3.36 7.392 5.208l6.384-2.226c-1.302-4.158-5.25-9.198-13.776-9.198-8.4 0-15.498 6.174-15.498 15.54 0 9.408 6.804 15.498 15.078 15.498 4.242 0 7.056-1.764 8.358-3.654l.42 3.024h5.376Zm12.684-5.25c-2.394 0-4.704-1.722-4.704-5.208 0-3.528 2.31-5.166 4.704-5.166 2.436 0 4.704 1.638 4.704 5.166 0 3.528-2.268 5.208-4.704 5.208Zm0-16.254c-6.216 0-11.088 4.578-11.088 11.046 0 6.468 4.872 11.088 11.088 11.088 6.258 0 11.088-4.62 11.088-11.088 0-6.468-4.83-11.046-11.088-11.046Zm13.146-8.904h6.384V40h-6.384zm30.492 0h-6.3v11.172c-.504-.798-2.058-2.142-5.628-2.142-5.922 0-10.122 4.662-10.122 10.878 0 6.426 4.452 10.962 10.332 10.962 2.52 0 4.62-1.05 5.586-2.478 0 .84.126 1.764.168 2.016h6.132c-.042-.462-.168-1.848-.168-3.738V9.592Zm-15.624 19.95c0-3.486 2.226-5.166 4.704-5.166 2.478 0 4.704 1.68 4.704 5.166 0 3.444-2.226 5.208-4.704 5.208-2.478 0-4.704-1.764-4.704-5.208Zm24.15-2.478c.126-1.554 1.47-3.528 4.158-3.528 3.024 0 4.116 1.932 4.2 3.528h-8.358Zm8.82 5.418c-.588 1.638-1.89 2.73-4.2 2.73-2.478 0-4.62-1.68-4.746-4.032h14.532c.042-.126.126-1.092.126-1.974 0-6.72-3.99-10.71-10.458-10.71-5.418 0-10.416 4.284-10.416 11.004 0 7.014 5.124 11.13 10.878 11.13 5.292 0 8.61-3.024 9.618-6.636l-5.334-1.512Zm14.154-4.452c0-2.1 1.344-3.654 3.444-3.654 2.31 0 3.402 1.554 3.402 3.612V40h6.384V26.896c0-4.578-2.352-8.316-7.602-8.316-2.142 0-4.704.966-5.838 2.94v-2.394h-6.174V40h6.384V28.03Zm47.796-11.466v-6.342h-24.99v6.342h9.156V40h6.636V16.564h9.198ZM178.355 40V19.126h-6.384V40h6.384Zm-6.93-27.258c0 2.058 1.68 3.738 3.696 3.738 2.1 0 3.78-1.68 3.78-3.738s-1.68-3.738-3.78-3.738c-2.016 0-3.696 1.68-3.696 3.738Zm10.458-3.15h6.384V40h-6.384zm14.784 17.472c.126-1.554 1.47-3.528 4.158-3.528 3.024 0 4.116 1.932 4.2 3.528h-8.358Zm8.82 5.418c-.588 1.638-1.89 2.73-4.2 2.73-2.478 0-4.62-1.68-4.746-4.032h14.532c.042-.126.126-1.092.126-1.974 0-6.72-3.99-10.71-10.458-10.71-5.418 0-10.416 4.284-10.416 11.004 0 7.014 5.124 11.13 10.878 11.13 5.292 0 8.61-3.024 9.618-6.636l-5.334-1.512Z" style="fill-rule:nonzero" transform="translate(-5.29 -4.817)"/></svg>