<svg xmlns="http://www.w3.org/2000/svg" width="264" height="70"><defs><filter id="a" color-interpolation-filters="auto"><feColorMatrix in="SourceGraphic" values="0 0 0 0 0.000000 0 0 0 0 0.466667 0 0 0 0 0.619608 0 0 0 1.000000 0"/></filter></defs><g fill="none" fill-rule="evenodd" filter="url(#a)"><g fill="#008FC0" fill-rule="nonzero"><path d="m103.19 39.207-1.232-1.057 1.056-1.19 1.231 1.102a2.62 2.62 0 0 0 .22-1.014c0-1.277-.924-2.334-2.243-2.334-1.32 0-2.243 1.057-2.243 2.334 0 1.278.923 2.335 2.243 2.335.352 0 .66-.044.968-.176m2.023 1.806-.836-.749a4.164 4.164 0 0 1-2.2.661c-2.286 0-3.958-1.718-3.958-3.832 0-2.115 1.672-3.877 4.003-3.877 2.287 0 3.959 1.718 3.959 3.832 0 .793-.264 1.542-.66 2.159l.748.66-1.056 1.146Zm2.287-3.436v-4.273h1.628v4.229c0 1.234.615 1.85 1.627 1.85s1.628-.616 1.628-1.806v-4.273h1.627v4.229c0 2.247-1.276 3.392-3.299 3.392-1.98 0-3.21-1.145-3.21-3.348m8.18-4.273h5.675v1.454h-4.003V36.3h3.519v1.453h-3.52v1.586h4.048v1.454h-5.719zm7.17 0h5.63v1.454h-4.002V36.3h3.518v1.453h-3.518v1.586h4.046v1.454h-5.674zm7.169 0h1.496l3.519 4.626v-4.626h1.627v7.489h-1.407l-3.607-4.758v4.758h-1.627zm7.918 6.388.968-1.146c.66.573 1.363.925 2.243.925.66 0 1.1-.264 1.1-.704v-.045c0-.396-.264-.616-1.496-.969-1.495-.396-2.463-.793-2.463-2.29 0-1.366 1.1-2.247 2.639-2.247 1.1 0 2.023.352 2.771.969l-.836 1.234c-.66-.441-1.32-.75-1.935-.75-.616 0-.968.309-.968.661 0 .485.308.661 1.628.97 1.495.396 2.375.925 2.375 2.246 0 1.498-1.144 2.335-2.727 2.335-1.276 0-2.42-.396-3.299-1.19m7.346-6.387h1.627v5.991h3.739v1.498h-5.366zm10.908 4.361-1.012-2.423-1.011 2.423h2.023Zm-1.715-4.405h1.495l3.21 7.533h-1.714l-.704-1.674h-3.167l-.704 1.674h-1.671l3.255-7.533Zm5.85.044h1.539l3.475 4.626v-4.626h1.627v7.489h-1.407l-3.607-4.758v4.758h-1.627zm11.348 5.991c1.363 0 2.243-.925 2.243-2.247 0-1.321-.924-2.246-2.243-2.246h-1.276v4.493h1.276Zm-2.903-5.991h2.903c2.331 0 3.958 1.63 3.958 3.7v.044c0 2.115-1.627 3.745-3.958 3.745h-2.903v-7.489Zm15.131 6.036c.747 0 1.143-.265 1.143-.794 0-.484-.352-.793-1.231-.793h-1.892v1.63h1.98v-.044Zm-.44-2.996c.748 0 1.187-.22 1.187-.793v-.044c0-.485-.395-.75-1.1-.75h-1.627v1.587h1.54Zm-3.123-3.04h3.475c.835 0 1.54.22 1.935.66.352.353.528.75.528 1.278 0 .837-.44 1.322-.968 1.63.88.353 1.408.837 1.408 1.85 0 1.366-1.1 2.071-2.815 2.071h-3.563v-7.489Zm7.565 4.273v-4.273h1.628v4.229c0 1.234.616 1.85 1.627 1.85 1.012 0 1.628-.616 1.628-1.806v-4.273h1.627v4.229c0 2.247-1.275 3.392-3.299 3.392-1.979 0-3.21-1.145-3.21-3.348m8.269-4.273h1.627v7.489h-1.627zm3.518 0h1.672v5.991h3.695v1.498h-5.367zm9.545 5.991c1.364 0 2.244-.925 2.244-2.247 0-1.321-.924-2.246-2.244-2.246h-1.275v4.493h1.275Zm-2.947-5.991h2.903c2.331 0 3.959 1.63 3.959 3.7v.044c0 2.115-1.628 3.745-3.959 3.745h-2.903v-7.489Zm8.445 0h1.627v7.489h-1.627zm3.519 0h1.496l3.519 4.626v-4.626h1.627v7.489h-1.407l-3.607-4.758v4.758h-1.628zm8.094 3.744c0-2.158 1.671-3.876 3.914-3.876 1.364 0 2.156.352 2.947 1.013l-1.055 1.234c-.572-.485-1.1-.75-1.936-.75-1.187 0-2.155 1.058-2.155 2.335 0 1.366.924 2.38 2.243 2.38.616 0 1.144-.133 1.54-.441v-1.058h-1.672v-1.41h3.255v3.26a4.82 4.82 0 0 1-3.21 1.19c-2.244 0-3.871-1.63-3.871-3.877m16.231.617-1.013-2.423-1.011 2.423h2.023Zm-1.76-4.405h1.495l3.211 7.533h-1.715l-.704-1.674h-3.167l-.704 1.674h-1.671l3.255-7.533Zm5.894.044h1.495l3.52 4.626v-4.626h1.627v7.489h-1.408l-3.607-4.758v4.758h-1.627zm11.348 5.991c1.364 0 2.243-.925 2.243-2.247 0-1.321-.923-2.246-2.243-2.246h-1.276v4.493h1.276Zm-2.903-5.991h2.903c2.331 0 3.959 1.63 3.959 3.7v.044c0 2.115-1.628 3.745-3.959 3.745h-2.903v-7.489ZM98.22 49.868c0-2.159 1.583-3.877 3.914-3.877 1.407 0 2.243.485 2.947 1.146l-1.056 1.189c-.571-.529-1.143-.837-1.891-.837-1.276 0-2.155 1.057-2.155 2.335 0 1.277.88 2.335 2.155 2.335.836 0 1.364-.353 1.98-.881l1.055 1.057c-.748.837-1.628 1.321-3.079 1.321-2.243.044-3.87-1.63-3.87-3.788m13.899 0c0-1.322-.924-2.379-2.244-2.379-1.32 0-2.243 1.057-2.243 2.335 0 1.277.924 2.335 2.243 2.335 1.32.044 2.244-1.014 2.244-2.291m-6.246 0c0-2.159 1.671-3.877 4.002-3.877 2.288 0 3.96 1.718 3.96 3.833 0 2.114-1.672 3.876-4.004 3.876-2.287 0-3.958-1.718-3.958-3.832m9.413-3.788h1.54l3.474 4.625v-4.626h1.627v7.49h-1.407l-3.607-4.758v4.757h-1.627zm7.917 6.431.968-1.145c.66.572 1.363.925 2.243.925.66 0 1.1-.265 1.1-.705v-.044c0-.397-.264-.617-1.496-.97-1.496-.396-2.463-.792-2.463-2.29 0-1.366 1.1-2.247 2.639-2.247 1.1 0 2.023.353 2.771.97l-.836 1.233c-.66-.44-1.32-.749-1.935-.749-.616 0-.968.308-.968.66 0 .485.308.662 1.628.97 1.495.396 2.375.925 2.375 2.247 0 1.497-1.144 2.334-2.727 2.334-1.232 0-2.375-.396-3.3-1.189m8.93-4.89h-2.243V46.08h6.158v1.542h-2.244v5.947h-1.671zm8.489 2.115c.792 0 1.276-.44 1.276-1.058 0-.704-.484-1.057-1.276-1.057h-1.627v2.159h1.627v-.044Zm-3.299-3.657h3.431c.968 0 1.672.265 2.155.75.44.396.66 1.012.66 1.717 0 1.19-.66 1.983-1.583 2.335l1.847 2.687h-1.98l-1.583-2.379h-1.275v2.38h-1.628v-7.49h-.044Zm7.61 4.273V46.08h1.627v4.23c0 1.233.616 1.85 1.628 1.85 1.011 0 1.627-.617 1.627-1.807V46.08h1.628v4.23c0 2.29-1.276 3.391-3.3 3.391-1.979 0-3.21-1.145-3.21-3.348m7.873-.485c0-2.159 1.584-3.877 3.915-3.877 1.407 0 2.243.485 2.947 1.146l-1.056 1.189c-.572-.529-1.143-.837-1.891-.837-1.276 0-2.156 1.057-2.156 2.335 0 1.277.88 2.335 2.156 2.335.835 0 1.363-.353 1.98-.881l1.055 1.057c-.748.837-1.628 1.321-3.08 1.321-2.242.044-3.87-1.63-3.87-3.788m9.941-2.247h-2.287V46.08h6.201v1.542h-2.287v5.947h-1.627zm5.234-1.542h1.627v7.489h-1.627zm9.413 3.789c0-1.322-.924-2.379-2.243-2.379-1.32 0-2.244 1.057-2.244 2.335 0 1.277.924 2.335 2.244 2.335 1.32.044 2.243-1.014 2.243-2.291m-6.202 0c0-2.159 1.671-3.877 4.003-3.877 2.287 0 3.958 1.718 3.958 3.833 0 2.114-1.671 3.876-4.002 3.876-2.332 0-3.96-1.718-3.96-3.832m9.414-3.788h1.495l3.52 4.625v-4.626h1.627v7.49h-1.408l-3.607-4.758v4.757h-1.627zm11.304 3.788c0-2.159 1.584-3.877 3.915-3.877 1.407 0 2.243.485 2.947 1.146l-1.056 1.189c-.572-.529-1.144-.837-1.891-.837-1.276 0-2.156 1.057-2.156 2.335 0 1.277.88 2.335 2.156 2.335.835 0 1.363-.353 1.98-.881l1.055 1.057c-.748.837-1.628 1.321-3.08 1.321-2.243.044-3.87-1.63-3.87-3.788m13.899 0c0-1.322-.923-2.379-2.243-2.379-1.32 0-2.243 1.057-2.243 2.335 0 1.277.924 2.335 2.243 2.335 1.32.044 2.243-1.014 2.243-2.291m-6.246 0c0-2.159 1.672-3.877 4.003-3.877 2.287 0 3.959 1.718 3.959 3.833 0 2.114-1.672 3.876-4.003 3.876-2.287 0-3.959-1.718-3.959-3.832m9.413-3.788h1.76l1.98 3.171 1.978-3.172h1.76v7.49h-1.628v-4.89l-2.11 3.215h-.045l-2.067-3.172v4.846h-1.628zm9.281 0h1.76l1.979 3.171 1.98-3.172h1.759v7.49h-1.628v-4.89l-2.111 3.215h-.044l-2.067-3.172v4.846h-1.628zm9.325-.001h1.627v7.489h-1.627zm3.035 6.432.968-1.145c.66.572 1.363.925 2.243.925.66 0 1.1-.265 1.1-.705v-.044c0-.397-.264-.617-1.496-.97-1.495-.396-2.463-.792-2.463-2.29 0-1.366 1.1-2.247 2.595-2.247 1.1 0 2.023.353 2.771.97l-.835 1.233c-.66-.44-1.32-.749-1.936-.749-.616 0-.968.308-.968.66 0 .485.308.662 1.628.97 1.495.396 2.375.925 2.375 2.247 0 1.497-1.143 2.334-2.727 2.334-1.232 0-2.375-.396-3.255-1.189m6.73 0 .968-1.145c.66.572 1.363.925 2.243.925.66 0 1.1-.265 1.1-.705v-.044c0-.397-.264-.617-1.496-.97-1.496-.396-2.463-.792-2.463-2.29 0-1.366 1.1-2.247 2.595-2.247 1.1 0 2.023.353 2.771.97l-.836 1.233c-.66-.44-1.32-.749-1.935-.749-.616 0-.968.308-.968.66 0 .485.308.662 1.628.97 1.495.396 2.375.925 2.375 2.247 0 1.497-1.144 2.334-2.727 2.334-1.232 0-2.375-.396-3.255-1.189m7.389-6.432h1.627v7.489h-1.627zm9.413 3.789c0-1.322-.923-2.379-2.243-2.379-1.32 0-2.243 1.057-2.243 2.335 0 1.277.923 2.335 2.243 2.335 1.32.044 2.243-1.014 2.243-2.291m-6.202 0c0-2.159 1.672-3.877 4.003-3.877 2.331 0 3.959 1.718 3.959 3.833 0 2.114-1.672 3.876-4.003 3.876-2.331 0-3.959-1.718-3.959-3.832m9.413-3.788h1.496l3.519 4.625v-4.626H264v7.49h-1.408l-3.65-4.758v4.757h-1.584zM28.063 35.683c1.627-1.939 3.562-2.908 5.806-2.908 1.32 0 2.507.265 3.563.75 1.011.484 1.89 1.189 2.639 2.114.703.88 1.275 2.026 1.627 3.304.352 1.321.572 2.731.572 4.317 0 1.63-.22 3.128-.66 4.45-.44 1.32-1.056 2.466-1.803 3.391-.792.925-1.672 1.674-2.727 2.159-1.056.529-2.2.749-3.387.749-2.243 0-4.09-.705-5.542-2.027v1.542h-3.607V25.551h3.607v10.132h-.088Zm0 13.084c1.583 1.63 3.343 2.466 5.322 2.466 1.54 0 2.77-.66 3.695-1.982.923-1.321 1.363-3.304 1.363-5.947 0-2.511-.44-4.405-1.275-5.683-.88-1.277-2.068-1.938-3.607-1.938-2.024 0-3.87 1.145-5.498 3.48v9.604Zm24.895 5.286c-1.407 0-2.727-.22-3.87-.705-1.188-.485-2.156-1.145-2.991-2.07-.836-.882-1.496-2.027-1.936-3.304-.484-1.322-.703-2.82-.703-4.538 0-1.674.22-3.172.703-4.493a9.306 9.306 0 0 1 1.936-3.348 7.796 7.796 0 0 1 2.99-2.07c1.188-.485 2.464-.706 3.915-.706 1.1 0 2.112.133 3.035.44.924.31 1.76.706 2.464 1.278a6.213 6.213 0 0 1 1.759 2.07c.44.838.748 1.763.924 2.82H57.4c-.044-1.233-.528-2.158-1.364-2.775-.835-.66-1.891-.97-3.123-.97a5.65 5.65 0 0 0-2.33.485c-.705.309-1.32.837-1.804 1.498-.528.661-.924 1.454-1.188 2.423-.264.97-.44 2.115-.44 3.392 0 1.278.132 2.423.44 3.392.264.97.66 1.806 1.188 2.423.528.66 1.1 1.146 1.803 1.454a5.807 5.807 0 0 0 2.331.484c.572 0 1.144-.088 1.672-.22.528-.176 1.011-.396 1.407-.705.396-.308.748-.704.968-1.145.264-.485.396-1.013.44-1.63h3.695c-.176 1.101-.484 2.026-.924 2.82a6.513 6.513 0 0 1-1.76 2.026c-.703.573-1.539.969-2.463 1.233-.88.309-1.891.44-2.99.44m18.342.001c-1.407 0-2.727-.22-3.87-.705-1.188-.485-2.156-1.145-2.991-2.07-.836-.882-1.496-2.027-1.936-3.304-.484-1.322-.704-2.82-.704-4.538 0-1.674.22-3.172.704-4.493a9.306 9.306 0 0 1 1.936-3.348 7.796 7.796 0 0 1 2.99-2.07c1.188-.485 2.464-.706 3.915-.706 1.1 0 2.112.133 3.035.44.924.31 1.76.706 2.463 1.278a6.213 6.213 0 0 1 1.76 2.07c.44.838.748 1.763.923 2.82h-3.694c-.044-1.233-.528-2.158-1.364-2.775-.836-.66-1.891-.97-3.123-.97-.88 0-1.627.177-2.331.485-.704.309-1.32.837-1.803 1.498-.528.661-.924 1.454-1.188 2.423-.264.97-.44 2.115-.44 3.392 0 1.278.132 2.423.44 3.392.264.97.66 1.806 1.188 2.423.527.66 1.1 1.146 1.803 1.454a5.807 5.807 0 0 0 2.331.484c.572 0 1.144-.088 1.672-.22.527-.176 1.011-.396 1.407-.705.396-.308.748-.704.968-1.145.264-.485.396-1.013.44-1.63h3.694c-.175 1.101-.483 2.026-.923 2.82a6.513 6.513 0 0 1-1.76 2.026c-.703.573-1.54.969-2.463 1.233a10.41 10.41 0 0 1-3.079.44"/><path d="M45.26 17.797H24.897V15.33H45.26v2.467Zm0 5.683H24.545v-2.467H45.26v2.467ZM22.258 70h-2.464V9.471h25.512v2.467H22.3V70h-.044Zm-4.444-8.634h-3.607v-10.22c-1.627 1.938-3.563 2.907-5.806 2.907-1.363 0-2.551-.264-3.563-.749A6.867 6.867 0 0 1 2.2 51.189c-.703-.88-1.231-1.982-1.627-3.304A16.19 16.19 0 0 1 0 43.612c0-1.674.22-3.171.66-4.537.44-1.322 1.055-2.467 1.803-3.392.748-.925 1.672-1.63 2.727-2.159a7.94 7.94 0 0 1 3.387-.749c2.2 0 4.047.705 5.586 2.027V33.26h3.607v28.106h.044Zm-3.607-13.657v-9.603c-1.583-1.63-3.387-2.467-5.366-2.467-1.54 0-2.771.66-3.695 1.982-.923 1.322-1.363 3.304-1.363 5.991 0 2.511.44 4.406 1.32 5.683.879 1.278 2.067 1.938 3.65 1.938 1.98 0 3.827-1.145 5.454-3.524"/><path d="M55.246 17.974 40.203 3.48 24.94 17.797l-1.672-1.806L40.247 0l.88.925L56.96 16.167z"/><path d="M47.636 10.352h2.463v13.172h-2.463zm40.423 23.084h1.452v20.132h-1.452z"/></g></g></svg>